<?xml version="1.0" encoding="UTF-8"?>
<svg id="Layer_2" data-name="Layer 2" xmlns="http://www.w3.org/2000/svg" viewBox="0 0 179.02 473.58">
  <defs>
    <style>
      .cls-1 {
        fill: #ee243c;
      }

      .cls-1, .cls-2, .cls-3 {
        stroke-width: 0px;
      }

      .cls-2 {
        fill: #ffc524;
      }

      .cls-3 {
        fill: #fff;
      }
    </style>
  </defs>
  <g id="Layer_1-2" data-name="Layer 1">
    <g>
      <g>
        <path class="cls-3" d="M38.54,337.81c0-1.21-.76-2.07-2.3-2.07h-2.24v6.97h1.21v-2.79h.58c.44,0,.69.41.9.82l.97,1.96h1.33l-1.33-2.51c-.08-.16-.2-.35-.43-.48v-.02c.92-.35,1.31-1.06,1.31-1.89ZM36.23,338.91h-1.02v-2.13h1c.82,0,1.09.39,1.09,1.04s-.34,1.09-1.07,1.09Z"/>
        <polygon class="cls-3" points="32.31 342.72 32.4 341.69 29.28 341.69 29.28 339.72 31.9 339.72 31.9 338.69 29.28 338.69 29.28 336.76 32.23 336.76 32.23 335.74 28.07 335.74 28.07 335.74 28.07 342.72 32.31 342.72"/>
        <rect class="cls-3" x="126.7" y="335.75" width="1.21" height="6.97"/>
        <path class="cls-3" d="M67.08,342.83c2.11,0,3.03-1.61,3.03-3.6,0-2.1-.94-3.59-3.03-3.59s-3.03,1.5-3.03,3.59.93,3.6,3.03,3.6ZM67.08,336.66c1.2,0,1.78,1.05,1.78,2.56s-.59,2.57-1.78,2.57-1.79-1.06-1.79-2.58.59-2.55,1.79-2.55Z"/>
        <path class="cls-3" d="M141.5,326.91c0-.1-.16-.42-.42-.42-.31,0-2.19,1.25-5.63,1.25-3.96,0-9.54-1.93-9.54-9.13,0-1.2.16-1.46.99-1.51,5.94-.36,11.16-1.51,12.51-1.83,1.41-.31,2.14-.52,2.14-.73,0-.42-.83-1.67-1.72-2.71-1.88-2.19-5.21-3.91-7.93-3.91h0c-4.75,0-9.7,4.38-9.7,11.73,0,8.71,6.36,10.79,10.64,10.79s8.66-3.29,8.66-3.55ZM131.39,309.02h0c2.4,0,5.48,3.86,5.48,5.16,0,.31-.05.42-.63.52-3.91.63-6.73,1.3-9.44,1.3-.63,0-.63-.05-.63-.31,0-.73,1.25-6.67,5.21-6.67Z"/>
        <path class="cls-3" d="M132.76,335.74l-1.41.11-2.45,6.87h1.13l.58-1.68h2.81l.58,1.68h1.24l-2.47-6.98h0ZM130.9,340.17l.54-1.54s.08-.22.55-1.67h.02c.48,1.44.56,1.67.56,1.67l.54,1.54h-2.21Z"/>
        <path class="cls-3" d="M155.52,309.13c0,.52.21.52,1.83.52,1.77,0,1.77.31,1.77,1.88,0,.73-1.88,6.15-3.13,9.91-.83,2.45-1.15,3.18-1.51,3.18-.21,0-.83-.89-1.25-1.98-3.13-8.03-4.48-9.86-4.48-11.37,0-1.2.31-1.51,1.56-1.51,1.09,0,1.3-.05,1.3-.52,0-.57-.21-.78-1.3-.78-1.67,0-3.49.16-4.95.16-1.25,0-1.62-.1-3.08-.1-.94,0-1.09.26-1.09.73s.05.52,1.09.52c.94,0,1.3.26,2.61,3.39,2.87,6.78,7.04,16.43,7.04,17,0,1.56-4.48,7.72-6.36,10.06-1.77,2.24-4.22,2.56-4.22,2.87,0,.26.52.52,1.41.52,1.15,0,1.51-.42,3.08-.62,1.15-.16,1.77-.21,2.35-1.36,1.67-3.44,4.01-7.67,7.3-15.64,4.12-10.01,6.41-16.27,7.56-16.27.63,0,1.36-.26,1.36-.73,0-.57-.26-.63-1.09-.63h0c-.73,0-2.14.21-2.92.21-1.41,0-2.35-.1-3.75-.1-.94,0-1.1,0-1.1.68Z"/>
        <path class="cls-3" d="M109.91,335.63c-2.1,0-3.03,1.5-3.03,3.59s.93,3.6,3.03,3.6,3.03-1.61,3.03-3.6c0-2.1-.94-3.59-3.03-3.59ZM109.91,341.8c-1.2,0-1.79-1.06-1.79-2.58s.59-2.55,1.79-2.55,1.78,1.05,1.78,2.56-.59,2.57-1.78,2.57Z"/>
        <polygon class="cls-3" points="93.84 335.75 93.84 342.72 97.97 342.72 98.06 341.69 95.06 341.69 95.06 335.75 93.84 335.75"/>
        <rect class="cls-3" x="99.24" y="335.75" width="1.21" height="6.97"/>
        <path class="cls-3" d="M93.8,329.36c0-.42-.42-.68-1.67-.68-1.77,0-3.44-2.55-5.21-4.69-3.65-4.38-4.59-5.37-4.59-5.84,0-.36,3.23-2.66,5.84-5.21,1.62-1.56,3.39-3.81,3.39-4.28,0-.16-.21-.21-.63-.21-.63,0-3.65.16-4.33.16-.63,0-1.62-.16-2.14-.16-.68,0-.94.1-.94.52,0,.47.26.57,1.04.57,2.29,0,2.45.1,2.45.94,0,1.09-.47,1.98-2.5,3.91-1.67,1.56-7.09,6.36-8.4,6.36-.16,0-.21-.16-.21-.37,0-8.5.31-14.34.31-22.26,0-1.67.1-3.86.1-4.54,0-.31-.1-.47-.36-.47h0c-.47,0-3.55,1.15-7.3,1.15-.57,0-.68.21-.68.73,0,.37.21.52,2.35.52,1.41,0,1.83.47,1.83,4.17,0,11-.16,26.44-.16,27.95,0,.78-.47.78-2.24.78-1.25,0-1.51.26-1.51.68,0,.47.31.52,1.51.52.73,0,2.66-.1,4.43-.1,1.67,0,4.07.1,4.85.1,1.15,0,1.41,0,1.41-.52,0-.42-.21-.68-1.41-.68-3.23,0-3.13,0-3.13-2.45v-3.28c0-.47.73-.83,1.56-1.36.89-.57,1.62-1.09,1.82-1.09.31,0,2.5,3.29,4.69,5.79,2.19,2.5,2.66,3.81,3.6,3.81.73,0,2.29-.05,2.92-.05.47,0,1.15.05,1.77.05,1.15,0,1.51-.1,1.51-.47Z"/>
        <polygon class="cls-3" points="121.13 338.04 121.16 338.04 124.1 342.72 125.17 342.72 125.17 335.75 123.96 335.75 123.96 340.33 123.93 340.33 121.09 335.74 121.09 335.74 119.92 335.86 119.92 342.72 121.13 342.72 121.13 338.04"/>
        <path class="cls-3" d="M101.83,307.93c-4.74,0-9.7,4.38-9.7,11.73,0,8.71,6.36,10.79,10.64,10.79s8.66-3.29,8.66-3.55c0-.1-.16-.42-.42-.42-.31,0-2.19,1.25-5.63,1.25-3.96,0-9.54-1.93-9.54-9.13,0-1.2.16-1.46.99-1.51,5.94-.36,11.16-1.51,12.51-1.83,1.41-.31,2.14-.52,2.14-.73,0-.42-.83-1.67-1.72-2.71-1.88-2.19-5.21-3.91-7.93-3.91h0ZM106.79,314.18c0,.31-.05.42-.63.52-3.91.63-6.73,1.3-9.44,1.3-.63,0-.63-.05-.63-.31,0-.73,1.25-6.67,5.21-6.67h0c2.4,0,5.48,3.86,5.48,5.16Z"/>
        <polygon class="cls-3" points="106.1 336.76 106.1 335.74 102.03 335.74 102.03 335.74 102.03 342.72 103.24 342.72 103.24 339.72 105.8 339.72 105.8 338.69 103.24 338.69 103.24 336.76 106.1 336.76"/>
        <path class="cls-3" d="M55.63,327.69c0,.73-.16.78-2.29.78-1.25,0-1.3.1-1.3.63s.1.52,1.3.52c.73,0,2.5-.26,4.28-.26,1.67,0,5.16.26,5.89.26,1.36,0,1.41.05,1.41-.52,0-.47-.05-.63-1.41-.63-3.86,0-4.01,0-4.01-2.55v-10.74c0-2.19,1.15-3.44,4.17-3.44,2.61,0,3.23,2.14,3.96,2.14.31,0,1.15-2.29,1.15-2.82,0-1.36-2.4-2.5-3.34-2.5-2.45,0-4.9,2.71-5.68,2.71-.21,0-.26-.36-.26-.83,0-.16.1-1.3.1-1.56,0-.42-.21-.57-.42-.57h0c-.84,0-1.83.26-2.66.26-1.04,0-2.03-.1-3.81-.1-.89,0-.83.16-.83.78,0,.57,0,.52.94.52,2.92,0,2.81.1,2.81,3.65v14.29Z"/>
        <path class="cls-3" d="M118.53,337.81c0-1.21-.76-2.07-2.3-2.07h-2.24v6.97h1.21v-2.79h.58c.44,0,.69.41.9.82l.97,1.96h1.33l-1.33-2.51c-.08-.16-.2-.35-.43-.48v-.02c.92-.35,1.31-1.06,1.31-1.89ZM116.22,338.91h-1.02v-2.13h1c.82,0,1.09.39,1.09,1.04s-.34,1.09-1.07,1.09Z"/>
        <path class="cls-3" d="M36.03,317.11c5.94-.36,11.16-1.51,12.51-1.83,1.41-.31,2.14-.52,2.14-.73,0-.42-.83-1.67-1.72-2.71-1.88-2.19-5.21-3.91-7.93-3.91h0c-4.74,0-9.7,4.38-9.7,11.73,0,8.71,6.36,10.79,10.64,10.79s8.66-3.29,8.66-3.55c0-.1-.16-.42-.42-.42-.31,0-2.19,1.25-5.63,1.25-3.96,0-9.54-1.93-9.54-9.13,0-1.2.16-1.46.99-1.51ZM35.3,315.7c0-.73,1.25-6.67,5.21-6.67h0c2.4,0,5.47,3.86,5.47,5.16,0,.31-.05.42-.63.52-3.91.63-6.73,1.3-9.44,1.3-.63,0-.63-.05-.63-.31Z"/>
        <path class="cls-3" d="M42.12,341.8c-.54,0-1.22-.25-1.79-.64l-.51.9c.57.4,1.34.77,2.3.77,1.33,0,2.44-.86,2.44-2.04,0-2.37-3.08-1.66-3.08-3.24,0-.52.35-.89,1.02-.89.6,0,1.07.2,1.59.47l.44-.88c-.59-.37-1.29-.62-2.02-.62h0c-1.23,0-2.26.74-2.26,1.97,0,2.34,3.08,1.92,3.08,3.23,0,.52-.4.97-1.2.97Z"/>
        <path class="cls-3" d="M88.98,335.85l-2.45,6.87h1.13l.58-1.68h2.81l.58,1.68h1.24l-2.47-6.98-1.41.11ZM88.52,340.17l.54-1.54s.08-.22.55-1.67h.02c.48,1.44.56,1.67.56,1.67l.54,1.54h-2.21Z"/>
        <path class="cls-3" d="M123.07,329.1c0-.42.1-.73-2.5-.73-.94,0-1.3-.57-1.3-4.9,0-1.51.26-5.63.26-25.5,0-1.56.26-3.44.26-4.07,0-.57-.26-.83-.52-.83h0c-.31,0-2.29.89-6.36,1.15-.89.05-1.3,0-1.3.63,0,.57.52.68,1.46.68,2.35,0,2.66,0,2.66,3.28v28.73c0,.94-.89.89-3.02.89-1.25,0-1.3.31-1.3.68,0,.42.1.52,1.3.52.73,0,3.49-.1,5.27-.1.94,0,2.09.1,2.87.1,1.88,0,2.24,0,2.24-.52Z"/>
        <path class="cls-3" d="M80.29,339.24c0,2.14.94,3.59,3.08,3.59.94,0,1.81-.39,2.52-1.04l-.62-.79c-.57.52-1.22.8-1.84.8-1.29,0-1.9-.93-1.9-2.57s.65-2.56,1.88-2.56c.66,0,1.15.23,1.69.68l.63-.81c-.73-.6-1.46-.9-2.32-.9h0c-2.1,0-3.12,1.51-3.12,3.6Z"/>
        <polygon class="cls-3" points="75.74 336.76 75.74 335.74 71.67 335.74 71.67 335.74 71.67 342.72 72.88 342.72 72.88 339.72 75.44 339.72 75.44 338.69 72.88 338.69 72.88 336.76 75.74 336.76"/>
        <path class="cls-3" d="M57.59,337.73s-.12.25-.47,1.03h-.03c-.37-.77-.5-1.03-.5-1.03l-.93-1.98h-1.36l2.2,3.99v2.98h1.21v-2.98l2.2-3.99h-1.33l-.99,1.98Z"/>
        <polygon class="cls-3" points="15.41 340.33 15.38 340.33 12.54 335.74 12.54 335.74 11.37 335.86 11.37 342.72 12.58 342.72 12.58 338.04 12.6 338.04 15.54 342.72 16.62 342.72 16.62 335.75 15.41 335.75 15.41 340.33"/>
        <rect class="cls-3" x="18.34" y="335.75" width="1.21" height="6.97"/>
        <path class="cls-3" d="M23.89,341.23h-.06c-.34-1.19-.47-1.6-.47-1.6l-1.33-3.89h-1.28,0s2.4,6.97,2.4,6.97h1.33l2.41-6.97h-1.19l-1.33,3.9s-.13.4-.48,1.59Z"/>
        <polygon class="cls-3" points="48.61 336.78 50.45 336.78 50.45 342.72 51.66 342.72 51.66 336.77 53.42 336.77 53.52 335.75 48.61 335.75 48.61 336.78"/>
        <path class="cls-3" d="M2.94,294.56c1.68,0,2.64.54,2.64,5.28v27.58c0,.9-.12,1.02-2.82,1.02-1.32,0-1.68.12-1.68.72s.42.66,1.02.66c1.92,0,3.24-.24,5.75-.24s5.16.6,7.67.6c8.33,0,13.91-3.18,13.91-9.89,0-5.22-3.54-7.25-6.36-8.69-1.2-.6-2.34-.9-2.34-1.02,0-.18,1.32-.84,2.46-1.62,1.92-1.32,4.5-3.42,4.5-7.67s-3.36-8.27-11.15-8.27h0c-5.39,0-8.27.36-9.53.36-2.1,0-3.96-.06-5.82-.06-1.02,0-1.2.06-1.2.48,0,.72.24.78,2.94.78ZM23.74,320.75c0,5.22-3.36,8.33-7.91,8.33-1.92,0-3.84-.42-4.5-1.14-.54-.6-.72-3.96-.72-4.5v-10.73c0-1.32.48-1.56,2.16-1.56h0c6.53,0,10.97,4.2,10.97,9.59ZM10.61,296.18c0-1.2.18-1.74,4.14-1.74h0c5.46,0,7.97,5.75,7.97,8.75,0,4.74-1.98,5.87-3.72,7.19,0,0-2.52-.36-6.17-.36-1.44,0-2.22.12-2.22-.84v-13.01Z"/>
        <rect class="cls-3" x="46.01" y="335.75" width="1.21" height="6.97"/>
        <path class="cls-3" d="M4.53,335.75h0v4.55c0,1.57.86,2.53,2.57,2.53s2.56-.97,2.56-2.54v-4.54h-1.21v4.62c0,.87-.37,1.43-1.35,1.43s-1.36-.57-1.36-1.44v-4.61h-1.21Z"/>
        <path class="cls-3" d="M33.68,122.15c-.29.03-.59.03-.89.02-1.16-.04-1.95-.75-2.11-1.91-.06-.46-.1-.91-.14-1.36h-1.99c.03.46.05.89.09,1.32.17,1.74,1.03,2.92,2.58,3.27.91.2,1.89.27,2.82.2,1.3-.1,2.4-.72,3.01-1.93.87-1.72.88-4.7-1.46-6.18-.81-.52-1.64-1.02-2.44-1.55-.55-.37-1.13-.73-1.61-1.19-.8-.77-.98-2.26-.47-3.26.42-.83,1.35-1.22,2.58-1.08.96.11,1.57.67,1.72,1.62.06.41.09.83.13,1.24h1.9c0-.39.02-.75,0-1.11-.09-1.71-.98-2.77-2.64-3.17-.21-.05-.41-.11-.61-.17h-1.78c-.1.03-.2.06-.3.1-.65.28-1.38.46-1.93.87-1.74,1.31-1.86,4.52-.23,6.15.61.61,1.35,1.09,2.07,1.58.79.55,1.65,1.01,2.42,1.58,1.21.9,1.52,2.67.79,3.99-.33.59-.85.89-1.51.96Z"/>
        <path class="cls-3" d="M68.86,126.25v-1.52h-7.31v16.27c.07.02.11.05.15.05,2.46,0,4.92-.01,7.38-.02v-1.5c-.18-.02-.37-.06-.55-.06-1.51,0-3.02,0-4.53,0-.16,0-.33-.01-.5-.02v-6.07h5.08v-1.54h-5.08v-5.59h5.36Z"/>
        <path class="cls-3" d="M2.6,123.52h10.01v-16.29H2.6v16.29Z"/>
        <path class="cls-3" d="M2.6,158.64h10.02v-16.29H2.6v16.29Z"/>
        <path class="cls-3" d="M13.87,141.02h9.99v-16.29h-9.99v16.29Z"/>
        <path class="cls-3" d="M53.87,211.3c.91.03,1.83.02,2.74.02v-16.32h-1.74v14.21s-.08.01-.12.02c-1.74-4.75-3.47-9.49-5.2-14.22h-2.94v16.27h1.77v-14.21c.13.11.2.25.25.38.5,1.37,1,2.74,1.5,4.11,1.14,3.12,2.28,6.24,3.43,9.35.05.15.2.37.31.37Z"/>
        <path class="cls-3" d="M23.38,193.83c.46.03.56-.14.56-.58-.01-5.08,0-10.15,0-15.23v-.53h-1.79v14.25c-.13-.13-.19-.27-.24-.41-.5-1.37-1-2.74-1.5-4.11-1.14-3.12-2.28-6.24-3.43-9.36-.06-.15-.2-.38-.31-.39-.91-.03-1.83-.02-2.75-.02v16.32h1.75v-14.31c.46,1.02.83,2.05,1.21,3.09,1.32,3.62,2.65,7.23,3.95,10.85.12.32.27.42.6.41.65-.03,1.31-.04,1.96,0Z"/>
        <path class="cls-3" d="M8.49,195.09c-1.92-.14-3.85-.07-5.78-.1-.02,0-.05.03-.09.06v16.23c.08.01.14.03.2.03,1.7,0,3.39.04,5.09-.02,2.56-.09,4.17-1.66,4.47-4.19.3-2.57.32-5.15.09-7.73-.22-2.51-1.63-4.13-3.98-4.29ZM10.22,207.44c-.29,1.49-1.27,2.27-2.79,2.3-.93.02-1.86,0-2.85,0v-13.25c1.22.06,2.42.04,3.59.2,1.25.18,2,1.01,2.13,2.48.17,1.85.2,3.72.21,5.58,0,.89-.12,1.8-.29,2.68Z"/>
        <path class="cls-3" d="M35.07,181.7c-.28-2.64-1.88-4.14-4.52-4.21-1.63-.04-3.27-.02-4.9-.03-.1,0-.21.02-.34.04v16.24c.12.01.2.03.28.03,1.63,0,3.27.05,4.9-.03,2.69-.13,4.13-1.48,4.49-4.13.36-2.63.36-5.27.09-7.91ZM32.92,189.5c-.19,1.76-1.03,2.54-2.78,2.69-.94.08-1.89.02-2.86.02v-13.16c1.34.06,2.68-.19,3.98.22.91.29,1.4,1.01,1.56,1.88.2,1.06.36,2.15.36,3.23,0,1.71-.08,3.42-.26,5.12Z"/>
        <path class="cls-3" d="M13.91,176.21h1.92v-7.59c.91,0,1.78-.07,2.64.02,1.24.12,1.64.55,1.77,1.81.09.9.12,1.8.17,2.7.05,1.02.09,2.04.14,3.06h2.07c-.03-.25-.06-.46-.07-.67-.1-1.74-.19-3.48-.28-5.22-.08-1.51-.63-2.21-2.07-2.52,1.22-.42,2.06-1.14,2.22-2.31.14-1.02.13-2.08,0-3.1-.14-1.1-.85-1.89-1.95-2.23-.41-.13-.85-.23-1.27-.24-1.68-.04-3.36-.03-5.04-.04-.09,0-.17.04-.24.05v16.27ZM15.85,161.36c1.15.09,2.29.09,3.39.28.97.17,1.29,1.01,1.33,1.9.03.6,0,1.22-.12,1.8-.19.97-.76,1.48-1.76,1.58-.92.09-1.86.1-2.84.15v-5.71Z"/>
        <path class="cls-3" d="M53.13,127.92c.53-1.83,2.07-2.24,3.68-1.79.71.2,1.18.69,1.35,1.42.12.51.16,1.04.25,1.57h1.89c0-.37.02-.71,0-1.04-.1-1.76-1.04-3.07-2.64-3.43-.88-.2-1.82-.22-2.73-.2-.81.02-1.58.28-2.25.79-1.34,1.03-1.77,2.5-1.88,4.06-.12,1.77-.15,3.54-.13,5.31.01,1.1.1,2.21.33,3.29.44,2.05,1.68,3.14,3.73,3.43,1.73.24,3.4-.06,5.06-.53.34-.1.42-.25.42-.59-.01-2.41,0-4.83,0-7.24v-.48h-4.72v1.53h2.77c0,.19.02.31.02.43,0,1.56,0,3.12-.01,4.67,0,.13-.19.33-.32.36-.79.14-1.59.31-2.38.33-1.12.02-1.95-.55-2.34-1.6-.25-.68-.43-1.41-.47-2.12-.08-1.66-.12-3.33-.06-4.99.04-1.06.15-2.15.44-3.17Z"/>
        <path class="cls-3" d="M36.32,197.73c-.29.99-.43,2.04-.5,3.07-.16,2.35-.21,4.7.2,7.03.41,2.38,1.82,3.6,4.21,3.8,1.57.13,3.09-.15,4.6-.57.33-.09.44-.23.43-.57-.02-2.43,0-4.86,0-7.29,0-.13-.02-.27-.03-.44-1.49,0-2.96,0-4.42,0-.09,0-.26.14-.26.22-.03.43-.01.86-.01,1.34h2.79c.03.09.05.13.05.17,0,1.62.01,3.24,0,4.86,0,.13-.17.34-.3.37-.6.15-1.21.31-1.82.35-1.82.1-2.81-.6-3.16-2.38-.22-1.12-.28-2.28-.28-3.43,0-1.72,0-3.46.21-5.17.25-2.07,1.5-2.98,3.41-2.74,1.04.13,1.73.78,1.89,1.82.06.41.09.83.14,1.25h1.9c0-.39.02-.74,0-1.1-.13-1.9-1.21-3.14-3.08-3.45-.7-.11-1.43-.13-2.14-.09-1.95.1-3.26,1.07-3.81,2.94Z"/>
        <path class="cls-3" d="M3.39,176.21c.35.03.48-.12.56-.44.31-1.22.64-2.43.97-3.64.08-.02.14-.04.2-.04,1.6,0,3.21-.01,4.81.01.13,0,.33.2.37.34.33,1.13.62,2.28.95,3.41.04.14.21.32.33.33.54.04,1.08.02,1.68.02-.05-.21-.08-.35-.12-.48-1.32-4.74-2.64-9.48-3.96-14.22-.15-.52-.16-1.25-.5-1.5-.37-.27-1.07-.08-1.62-.12-.39-.03-.56.1-.67.49-1.19,4.27-2.41,8.54-3.61,12.81-.28.98-.55,1.97-.84,3.01.53,0,.99-.03,1.45,0ZM7.54,162.31s.07,0,.1,0c.71,2.71,1.41,5.42,2.13,8.17h-4.35c.71-2.75,1.42-5.45,2.12-8.16Z"/>
        <path class="cls-3" d="M12.74,191.77c-1.29-4.62-2.58-9.24-3.85-13.86-.09-.34-.23-.49-.6-.46-.4.04-.81.03-1.21,0-.39-.03-.56.1-.67.49-1.32,4.74-2.67,9.47-4.01,14.2-.15.53-.29,1.07-.45,1.67.54,0,1-.03,1.46,0,.34.02.46-.12.54-.42.28-1.11.59-2.22.87-3.33.08-.3.19-.43.53-.42,1.49.02,2.99.02,4.48,0,.3,0,.43.1.5.39.29,1.14.6,2.28.92,3.42.04.13.15.33.24.33.58.03,1.17.02,1.8.02-.2-.73-.38-1.39-.56-2.04ZM5.41,188.09c.72-2.76,1.42-5.49,2.13-8.21.03,0,.07-.01.1-.02.71,2.72,1.42,5.44,2.14,8.23h-4.37Z"/>
        <path class="cls-3" d="M27.45,209.99c-.48.09-.99.09-1.48.03-.96-.12-1.55-.68-1.74-1.63-.11-.53-.14-1.07-.21-1.61h-1.97c.05.59.06,1.15.15,1.7.27,1.69,1.2,2.67,2.82,3.01.45.09.92.15,1.39.17,1.8.08,3.42-.53,4.16-2.02.81-1.61.93-4.62-1.47-6.15-1-.64-2.01-1.24-3-1.89-.44-.29-.88-.61-1.21-1.02-1.29-1.59-.53-3.92,1.36-4.17,1.5-.2,2.67.39,2.68,2.2,0,.21,0,.43,0,.66h2.02c-.03-.52-.04-1-.1-1.47-.19-1.4-.94-2.34-2.32-2.74-1.12-.32-2.24-.35-3.36-.05-1.28.34-2.23,1.08-2.67,2.38-.66,1.93-.02,4.05,1.65,5.24,1.06.76,2.18,1.44,3.29,2.13,1.26.77,1.74,1.88,1.57,3.32-.12,1-.69,1.77-1.56,1.92Z"/>
        <path class="cls-3" d="M8.56,126.05c1.01.18,1.65.87,1.76,1.94.05.44.09.88.13,1.33h1.96c-.05-.63-.06-1.22-.15-1.8-.26-1.68-1.29-2.75-2.93-3-.72-.11-1.46-.15-2.18-.1-1.63.11-2.97.77-3.61,2.36-.29.72-.52,1.52-.57,2.29-.11,1.86-.15,3.73-.13,5.59.01,1.14.11,2.3.32,3.43.3,1.64,1.21,2.86,2.94,3.16.89.15,1.83.14,2.73.04,2.67-.28,3.82-2.1,3.65-5.09h-1.89c-.09.66-.14,1.3-.28,1.92-.17.73-.59,1.36-1.36,1.51-.67.13-1.38.15-2.07.11-.73-.05-1.2-.55-1.48-1.2-.14-.32-.28-.67-.3-1.02-.11-1.58-.24-3.16-.25-4.74,0-1.44.05-2.9.26-4.32.29-1.99,1.47-2.75,3.46-2.4Z"/>
        <path class="cls-3" d="M21.4,209.75h-5.54v-6.09h5.09v-1.58h-5.11v-5.55h5.44v-1.53h-7.39v16.29h7.51v-1.54Z"/>
        <path class="cls-3" d="M49.7,126.24v-1.52h-7.3v16.29h7.5c0-.42-.02-.79,0-1.16.02-.32-.12-.39-.41-.39-1.07.01-2.15,0-3.22,0h-1.92v-6.09h5.07v-1.54h-5.07v-5.59h5.34Z"/>
        <path class="cls-3" d="M21.5,143.89v-1.53h-7.58v16.28h1.92v-7.63h4.82v-1.58h-4.82v-5.54h5.65Z"/>
        <path class="cls-3" d="M13.91,108.79h4.03v14.73h1.97v-14.74h4.01v-1.55h-10.01v1.56Z"/>
        <path class="cls-3" d="M23.14,161.44h3.73v14.78h1.95v-14.81h3.71v-1.49h-9.4v1.52Z"/>
        <path class="cls-3" d="M25.2,124.73v16.28h7.3v-1.56h-5.38v-14.73h-1.92Z"/>
        <path class="cls-3" d="M35.7,124.72h-1.9v16.28h7.32v-1.54h-5.42v-14.74Z"/>
        <path class="cls-3" d="M25.19,123.51h1.9v-16.3h-1.9v16.3Z"/>
        <path class="cls-3" d="M32.4,211.29h1.91v-16.27h-1.91v16.27Z"/>
        <g id="g4181">
          <path id="path6" class="cls-1" d="M44.84,428.74l-15.63.03-15.63.03v7.99c0,7.53.02,8.01.2,8.36.24.46.87.84,1.41.84.26,0,2.29-.69,5.9-2.01,0,0,3.6-1.58,5.51-2.01.31-.07.94-.09.94-.09.29,0,1.03.13,1.51.36,1.2.57,1.98,1.6,2.19,2.92.07.45.11,5.37.11,14.55v13.87h13.48v-44.84h0ZM0,428.74v44.84l12.26-.03,12.25-.03.03-5.22c.01-2.87-.01-5.26-.06-5.31-.05-.05-3,.97-6.61,2.28-6.12,2.23-6.57,2.37-7.25,2.38-1.3,0-2.46-.59-3.16-1.64-.7-1.04-.65.26-.65-19.42v-17.85H0h0ZM24.17,449.23c-.22,0-10.27,3.64-10.45,3.79-.1.08-.13.94-.13,3.64,0,3.21.02,3.54.18,3.63.1.05.23.08.29.06,1-.31,9.54-3.47,9.77-3.61.18-.11.42-.4.53-.64.18-.4.2-.71.2-3.45,0-3.06-.04-3.42-.39-3.42h0Z"/>
          <g id="g4177">
            <path id="path8" class="cls-3" d="M83.09,450.85c-2.14-.48-3.73-2.07-4.35-4.34-.28-1.02-.25-3.33.04-4.42.63-2.31,2.16-3.88,4.3-4.42.5-.12.99-.16,1.83-.13,1.03.04,1.23.08,1.91.39,1.31.6,2.24,1.79,2.6,3.32.17.72.24,2.71.1,2.94-.06.09-1.18.12-4.3.12h-4.23v.55c0,1.05.49,2.39,1.15,3.14.45.51,1.41.99,2.26,1.12.98.15,2.2-.06,3.2-.56.41-.2.78-.34.83-.31.17.11.73,1.32.67,1.47-.08.2-1.4.82-2.2,1.04-.88.24-2.96.29-3.81.1h0ZM87.19,441.96c-.04-.87-.49-1.82-1.06-2.23-1.17-.84-3.13-.61-4.09.48-.43.49-.84,1.39-.91,1.98l-.05.46,3.07-.03,3.07-.03-.03-.63h0ZM126.52,450.86c-3.05-.7-4.65-2.93-4.65-6.46,0-1.53.19-2.45.76-3.64.76-1.59,2.26-2.8,3.93-3.14.88-.18,2.67-.08,3.37.2,1.26.49,2.29,1.64,2.72,3.03.23.73.39,2.7.27,3.19l-.07.28h-4.23c-3.82,0-4.24.02-4.3.17-.1.25.13,1.59.39,2.28.29.77,1.17,1.73,1.86,2.03,1.41.61,3.12.47,4.6-.35.25-.14.5-.26.55-.26s.25.33.46.73c.35.69.36.74.18.91-.24.24-1.3.71-2.07.92-.87.24-2.96.3-3.76.12h0ZM130.51,441.98c-.09-1.16-.62-2.04-1.49-2.51-.33-.18-.6-.22-1.31-.23-1.02,0-1.64.23-2.27.87-.43.43-.93,1.44-1.03,2.08l-.07.44h6.22l-.05-.66h0ZM138.93,450.85c-1.07-.23-1.99-.73-2.75-1.51-1.28-1.29-1.8-2.72-1.8-4.97s.55-3.83,1.9-5.18c.85-.85,1.53-1.24,2.64-1.53.93-.24,2.74-.16,3.53.16,1.82.73,2.85,2.4,2.99,4.84.04.67.02,1.18-.05,1.36l-.11.29-4.21.03-4.21.03-.03.43c-.07,1.03.5,2.55,1.25,3.29,1.31,1.31,3.84,1.43,5.69.29.18-.11.37-.2.43-.2.14,0,.76,1.18.76,1.44,0,.35-1.59,1.03-2.97,1.27-.83.15-2.26.13-3.06-.05h0ZM143.08,442.24c0-.62-.37-1.69-.74-2.13-.53-.64-1.04-.85-2.08-.85-.77,0-.97.03-1.49.29-.94.46-1.67,1.52-1.82,2.65l-.06.45h6.19v-.41h0ZM111.43,450.69c-.69-.15-1.46-.62-2-1.22-.27-.3-1.1-1.51-1.84-2.69-.81-1.28-1.42-2.15-1.52-2.15-.09,0-.57.42-1.07.93l-.91.93.03,1.19.03,1.19.44.08c.24.04.64.11.89.16l.44.08v1.46h-6.06v-1.46l.5-.08.99-.16.5-.08.03-7.72c.02-5.15,0-7.77-.08-7.85-.06-.07-.52-.16-1.05-.2l-.94-.07v-.71c0-.57.04-.73.18-.78.1-.04,1.07-.1,2.17-.13l2-.06-.04,6.13c-.02,3.37-.01,6.21.03,6.31.05.14.51-.26,2.15-1.9,1.15-1.15,2.09-2.14,2.09-2.21s-.22-.15-.5-.19c-.77-.1-.81-.14-.81-.9v-.67l2.97-.03c2.31-.02,2.99,0,3.06.1.14.23.1,1.1-.07,1.26-.09.09-.49.18-1.02.23l-.87.07-1.75,1.74c-.96.95-1.75,1.78-1.75,1.83,0,.15,2.36,3.79,3,4.64.78,1.03,1.11,1.22,2.23,1.28l.89.05.09.71c.06.48.06.75-.02.82-.14.14-1.84.2-2.4.08h0ZM62.96,450.56c-.03-.08-.04-.43-.03-.77l.03-.62.42-.08c.23-.04.69-.1,1.02-.14l.6-.06-.03-7.13-.03-7.13-.93-.12c-.51-.07-.97-.17-1.02-.22-.05-.05-.08-.4-.07-.77l.03-.67h4.29c4.74,0,5.17.05,6.47.67,2.01.96,2.8,3.42,1.8,5.61-.33.71-1.01,1.37-1.82,1.76-.35.17-.64.34-.64.38s.3.18.66.31c1.92.68,3,2.16,3,4.12,0,2.42-1.3,3.97-3.92,4.68-.78.21-1.12.23-5.3.27-3.83.04-4.48.02-4.53-.11h0ZM72.16,448.55c1.47-.53,2.04-1.36,2.04-2.93,0-1.68-.8-2.7-2.46-3.14-.75-.2-3.81-.31-4.11-.15-.23.12-.23.13-.23,3.24,0,1.71.04,3.15.08,3.19.04.04,1,.06,2.12.03,1.62-.04,2.14-.09,2.56-.24h0ZM71.52,440.31c.74-.24,1.27-.63,1.6-1.19.25-.42.29-.64.33-1.44.03-.87.01-.99-.26-1.52-.6-1.16-1.52-1.48-4.07-1.44l-1.66.03-.03,2.67c-.02,1.47,0,2.78.03,2.91l.06.25,1.75-.05c1.15-.04,1.92-.11,2.25-.22h0ZM90.97,450.55c-.03-.08-.04-.42-.02-.76l.03-.62.5-.08.99-.16.5-.08.03-4.59c.02-3.3,0-4.63-.09-4.73-.08-.1-.37-.14-.92-.14-.44,0-.86-.04-.93-.09-.09-.06-.13-.29-.1-.75l.03-.67.37-.08c.2-.04,1.17-.09,2.14-.11l1.78-.03v.97c.02.53.04.99.07,1.02.03.03.23-.21.45-.52.46-.67,1.19-1.24,1.88-1.48.56-.19,2.06-.16,2.26.04.1.1.09.31-.07.97-.25,1.11-.31,1.18-.83,1.03-.94-.26-1.92.09-2.85,1.01-.97.97-.97.96-.97,4.69,0,1.78.04,3.3.08,3.37.05.07.52.17,1.12.24.57.06,1.08.15,1.12.19.05.05.07.39.06.76l-.03.67-3.27.03c-2.7.02-3.28,0-3.32-.12h0ZM115.03,450.52c-.09-.24-.07-1.12.02-1.27.07-.1,1.37-.33,1.92-.34.04,0,.07-3.54.05-7.87l-.03-7.86-.89-.08c-.49-.04-.95-.1-1.02-.13-.19-.07-.17-1.25.02-1.41.1-.08.81-.13,2.2-.14l2.05-.02v8.75s-.02,8.75-.02,8.75l.6.07c.33.04.77.1.97.14l.37.08.03.75.03.75h-3.13c-2.76,0-3.14-.02-3.19-.17h0Z"/>
            <path id="path4175" class="cls-3" d="M101.71,472.17c-.68-.19-1.48-.62-1.8-.96l-.24-.25.27-.27.27-.27.53.42c.73.58,1.44.81,2.47.79,1.9-.02,2.87-1.13,2.87-3.29,0-.61-.04-.94-.11-.94-.06,0-.33.19-.59.42-1.32,1.16-3.69.9-4.98-.53-1.21-1.34-1.21-3.34,0-4.69,1.29-1.44,3.66-1.69,4.98-.53.26.23.53.42.59.42s.12-.2.14-.44c.03-.43.04-.44.4-.44h.37l.03,3.45c.02,2.09-.02,3.74-.08,4.18-.21,1.35-1.08,2.5-2.17,2.87-.62.21-2.28.24-2.93.06h0ZM104.5,467.58c2.18-1.12,2.17-4.12-.03-5.26-.42-.22-.66-.27-1.25-.27-.87,0-1.35.19-1.98.78-.65.6-.93,1.23-.93,2.13s.27,1.53.94,2.14c.93.86,2.16,1.04,3.26.48h0ZM66.85,468.71c-1.47-.36-2.81-1.43-3.44-2.78-.47-.99-.63-1.7-.63-2.8,0-1.69.55-3.11,1.61-4.17,1.05-1.05,2.4-1.58,4.05-1.57,1.33,0,2.42.39,3.18,1.13.47.45.48.57.11.84l-.28.21-.5-.45c-.87-.78-2.12-1.11-3.38-.89-2.36.41-3.91,2.36-3.91,4.92s1.59,4.55,4.01,4.93c1.32.21,2.57-.18,3.58-1.1l.54-.48.27.22c.15.12.27.28.27.35,0,.21-.98,1.05-1.52,1.31-1.09.53-2.67.67-3.95.36h0ZM76.28,468.61c-1.63-.52-2.58-1.99-2.47-3.82.08-1.46.79-2.52,2.06-3.11.5-.24.72-.27,1.62-.27s1.12.04,1.62.27c.83.39,1.3.85,1.69,1.64.32.64.34.77.34,1.74s-.02,1.1-.34,1.74c-.62,1.25-1.64,1.88-3.16,1.93-.58.02-1.06-.02-1.37-.12h0ZM78.88,467.77c1.01-.49,1.53-1.41,1.52-2.71,0-1.84-1.15-3.03-2.9-3.02-1.56,0-2.57.88-2.9,2.5-.14.71.06,1.7.49,2.34.78,1.17,2.41,1.56,3.78.9ZM93.18,468.63c-.71-.24-1.05-.46-1.55-1.02-1.28-1.42-1.17-4.05.22-5.33.75-.69,1.27-.88,2.43-.88.87,0,1.06.03,1.52.28,1.05.56,1.68,1.57,1.74,2.8l.03.68-2.98.05-2.98.05-.04.25c-.1.74.62,1.89,1.49,2.34.33.17.61.23,1.22.22.87,0,1.53-.24,2.1-.78.38-.35.52-.37.76-.1.17.19.16.22-.15.57-.53.61-1.35.93-2.46.97-.6.02-1.09-.01-1.36-.1h0ZM96.68,464.43c.34-.41-.45-1.69-1.31-2.13-.69-.35-1.68-.37-2.31-.03-.82.43-1.66,1.66-1.47,2.16.09.24,4.89.25,5.09,0h0ZM111.47,468.63c-.71-.24-1.05-.46-1.55-1.02-1.28-1.42-1.17-4.05.22-5.33.75-.69,1.27-.88,2.43-.88.87,0,1.06.03,1.52.28,1.05.56,1.68,1.57,1.74,2.8l.03.68-2.98.05-2.98.05-.04.25c-.1.74.62,1.89,1.49,2.34.33.17.61.23,1.22.22.87,0,1.53-.24,2.1-.78.38-.35.52-.37.76-.1.17.19.16.22-.15.57-.53.61-1.35.93-2.46.97-.6.02-1.09-.01-1.36-.1h0ZM114.97,464.43c.34-.41-.45-1.69-1.31-2.13-.69-.35-1.68-.37-2.31-.03-.82.43-1.66,1.66-1.47,2.16.09.24,4.89.25,5.09,0h0ZM124.26,468.61c-1.63-.52-2.58-1.99-2.47-3.82.08-1.46.79-2.52,2.06-3.11.5-.24.72-.27,1.62-.27s1.12.04,1.62.27c.83.39,1.3.85,1.69,1.64.32.64.34.77.34,1.74s-.02,1.1-.34,1.74c-.62,1.25-1.64,1.88-3.16,1.93-.58.02-1.06-.02-1.37-.12h0ZM126.85,467.77c1.01-.49,1.53-1.41,1.52-2.71,0-1.84-1.15-3.03-2.9-3.02-1.56,0-2.57.88-2.9,2.5-.14.71.06,1.7.49,2.34.78,1.17,2.41,1.56,3.78.9ZM155.59,468.62c-.53-.19-.98-.62-1.26-1.21-.2-.43-.22-.68-.26-3.17l-.03-2.7.4.03.4.03.05,2.61c.06,2.77.07,2.85.61,3.42.7.75,2.33.56,3.1-.36.58-.69.62-.9.68-3.38l.05-2.3.39-.03.39-.03v3.4c0,1.87.01,3.44.03,3.48.01.04-.15.09-.37.11l-.39.03v-.47c0-.26-.05-.5-.11-.54-.06-.04-.32.14-.57.4-.28.28-.66.53-.96.63-.6.2-1.62.21-2.16.01h0ZM163.6,468.63c-.79-.26-1.5-.81-1.5-1.16,0-.06.13-.19.3-.29.29-.17.3-.17.6.14.48.5,1.05.75,1.77.76.74.01,1.23-.23,1.59-.77.29-.44.3-.84.02-1.19-.31-.39-.73-.59-1.83-.85-1.62-.38-2.24-.91-2.24-1.93,0-1.19.97-1.99,2.4-1.99.81,0,1.41.19,1.88.59.49.42.54.68.15.86-.25.11-.31.09-.67-.24-.93-.84-2.47-.68-2.88.31-.38.91.25,1.42,2.26,1.82,1.28.25,1.88.87,1.88,1.93,0,.83-.29,1.36-.98,1.78-.44.27-.62.32-1.41.34-.56.02-1.07-.02-1.34-.11h0ZM175.37,468.61c-1.62-.5-2.58-1.98-2.47-3.82.06-.98.49-1.97,1.1-2.5,1.3-1.14,3.49-1.24,4.72-.22.38.32.39.54.02.74-.17.09-.27.06-.5-.14-.71-.59-1.4-.77-2.26-.59-1.16.24-1.93,1.02-2.24,2.26-.26,1.07.04,2.2.79,2.95,1.02,1.02,2.7,1.09,3.7.14.31-.29.51-.26.75.13.09.15.05.24-.25.49-.79.67-2.22.91-3.36.56h0ZM83.69,468.5s-.07-2.62-.07-5.74c0-6.17-.02-6.01.57-5.86l.26.07-.03,5.77-.03,5.77-.32.03c-.17.02-.35,0-.39-.04h0ZM87.55,468.5s-.07-2.62-.07-5.74c0-6.17-.02-6.01.57-5.86l.26.07-.03,5.77-.03,5.77-.32.03c-.17.02-.35,0-.39-.04h0ZM132,465.49c0-2.37-.03-3.1-.13-3.18-.07-.06-.41-.13-.76-.14-.59-.03-.62-.05-.62-.29s.04-.26.62-.29c.34-.02.68-.08.76-.14.1-.08.13-.49.13-1.48,0-1.59.09-2.02.55-2.54.43-.48.86-.66,1.61-.66.75,0,.92.09.82.46-.07.26-.1.27-.56.21-.66-.08-1.16.17-1.43.73-.27.55-.38,3.07-.15,3.27.08.07.48.14.88.15.7.03.73.04.73.29s-.03.26-.73.29c-.4.02-.79.08-.86.14-.1.09-.14.8-.14,3.18v3.07h-.73v-3.07h0ZM140.31,468.44c-.03-.08-.04-2.51-.03-5.42l.03-5.28h1.43l1.96,4.49c1.24,2.85,2.01,4.49,2.1,4.49s.86-1.65,2.1-4.49l1.96-4.49.69-.03.69-.03v10.88h-.83l-.03-4.72c-.02-3.34-.06-4.73-.14-4.76-.07-.02-.8,1.55-1.71,3.65-2.6,6.01-2.52,5.83-2.72,5.83-.19,0-.2-.04-3.27-7-.59-1.35-1.13-2.47-1.2-2.49-.1-.03-.13,1.08-.15,4.7l-.03,4.74-.39.03c-.25.02-.41-.02-.45-.1h0ZM169.68,468.44c-.03-.08-.04-1.64-.03-3.48l.03-3.34h.73v6.9l-.34.03c-.21.02-.36-.02-.39-.11h0ZM169.59,458.93c-.09-.13-.17-.31-.17-.4s.08-.27.17-.4c.24-.34.76-.28.98.11.14.26.14.32,0,.57-.22.39-.74.45-.98.11h0Z"/>
          </g>
        </g>
      </g>
      <g>
        <path class="cls-2" d="M3.19,10.75c0-2.23-.01-4.45,0-6.68,0-1.37-.4-2.27-2.02-2.07C.64,2.07,0,2.16.02,1.26c.01-.89.55-.72,1.15-.71,2.95.04,5.89.03,8.84.02.52,0,1.15-.34,1.22.61.06.87-.48.82-1.07.85-2.19.1-2.31.13-2.4,2.35-.19,4.75-.26,9.51.1,14.25.26,3.45,2.55,5.43,5.93,5.41,3.56-.02,6.27-2.38,6.52-5.87.34-4.79.22-9.59-.25-14.38-.12-1.25-.69-1.83-1.95-1.77-.57.03-1.17.06-1.11-.82.06-.93.68-.63,1.22-.62,2.13.02,4.27.03,6.4,0,.53,0,1.03-.18,1.06.63.03.7-.33.89-.94.82-1.55-.16-2.02.6-2.03,2.07-.02,4.09-.14,8.18-.25,12.27-.1,3.51-1.04,6.69-4.4,8.41-3.65,1.87-7.49,1.75-11.09-.15-2.86-1.51-3.59-4.37-3.72-7.35-.09-2.17-.02-4.35-.02-6.52-.01,0-.03,0-.04,0Z"/>
        <path class="cls-2" d="M46.48,11.08c-.03,3.24.58,6.33,2.63,8.94,3.47,4.42,9.84,4.58,14.04.48.45-.44.79-1.85,1.73-.98.93.86-.34,1.5-.81,2.05-4.04,4.66-9.34,5.36-14.66,3.58-4.82-1.61-7.72-6.3-7.72-11.9,0-6.34,3.59-11.3,9.33-12.76,3.36-.86,6.63-.42,9.8.91.67.28,1.39.94,1.63-.41.08-.42.44-.36.73-.33.4.04.43.37.46.67.26,2.31.5,4.61.79,6.92.06.46-.14.64-.49.8-.55.24-.72-.13-.87-.53-.68-1.82-1.68-3.43-3.15-4.74-4.43-3.97-10.84-2.32-12.74,3.29-.44,1.3-.71,2.63-.71,4.02Z"/>
        <path class="cls-3" d="M89.56,14.88c1.27,0,2.54,0,3.81,0,.4,0,.81-.06.82.58.01.59-.21.88-.79.8-1.9-.28-2.07.84-1.99,2.29.08,1.41-.01,2.83.07,4.24.04.66-.13.99-.74,1.28-4.51,2.18-9.2,2.82-14.04,1.43-5.26-1.51-8.4-5.98-8.62-11.87-.18-4.93,1.44-9.01,5.86-11.49,4.7-2.64,9.62-2.93,14.51-.37.76.4,1.25.68,1.86-.2.42-.61.89-.46.92.32.07,1.97.09,3.94.14,5.9.01.42,0,.83-.51.95-.58.14-.66-.32-.8-.69-.51-1.38-1.12-2.71-2.11-3.82-3.98-4.47-11.21-3.54-14.47,1.87-2.56,4.25-2.18,11.24.82,15.19,2.65,3.49,9.11,4.63,12.74,2.27.4-.26.73-.57.83-1.04.37-1.8.24-3.63.11-5.43-.06-.89-1.01-.78-1.72-.85-.51-.06-1.35.39-1.37-.65-.01-1.18.92-.66,1.46-.69,1.06-.08,2.13-.02,3.2-.02Z"/>
        <path class="cls-2" d="M33.1.07c1.17,0,2.32.21,3.44.56.66.21,1.27.58,1.91-.19.34-.41.79-.33.86.4.15,1.71.36,3.41.55,5.12.05.49,0,.91-.6,1.03-.62.12-.6-.4-.76-.73-.97-2.11-2.1-4.05-4.66-4.56-1.93-.38-3.81.52-4.54,2.21-.76,1.77-.04,3.98,1.61,5.02,1.3.81,2.75,1.25,4.18,1.75,2.79.96,5.2,2.35,5.82,5.56,1.05,5.37-2.17,10.37-8.48,9.72-1.76-.18-3.39-.57-4.82-1.61-.53-.39-.97-.56-1.35.16-.15.29-.37.48-.73.41-.42-.08-.38-.43-.35-.71.18-2.01.38-4.02.56-6.03.04-.42.19-.63.67-.58.42.04.6.16.65.62.15,1.48.69,2.84,1.58,4.04,1.38,1.86,3.99,2.61,6.12,1.78,3.03-1.17,3.76-5.11,1.34-7.32-.95-.87-2.13-1.34-3.31-1.8-1.32-.51-2.6-1.09-3.83-1.81-3.45-2.01-3.92-4.49-3.34-8.03.44-2.69,3.61-4.86,6.72-4.99.25-.01.51,0,.76,0Z"/>
        <path class="cls-3" d="M113.77,12.93c3.11-2.85,6.77-3.77,9.37.15,1.67-1.65,3.52-2.9,6.02-2.55,2.43.33,4.02,2.04,4.09,4.48.07,2.58.05,5.16.01,7.74-.02,1.04.05,1.84,1.43,1.65.63-.09.75.37.71.89-.05.61-.51.56-.9.51-1.67-.2-3.34-.15-5.01,0-.39.04-.84.1-.87-.53-.03-.54.15-.95.75-.87,1.2.15,1.31-.54,1.31-1.46,0-2.43.11-4.85.05-7.28-.05-2.25-1.14-3.33-3.21-3.46-1.84-.12-3.54,1.08-3.83,2.94-.44,2.81-.11,5.65-.17,8.48-.02.82.63.77,1.2.76.58,0,1.2-.03,1.13.82-.08.91-.78.56-1.29.56-1.47,0-2.94-.02-4.41-.02-.56,0-1.31.4-1.38-.6-.06-.87.63-.77,1.17-.75.66.02,1.06-.13,1.05-.91-.05-2.68.05-5.36-.12-8.03-.15-2.31-.97-3.09-2.85-3.24-1.75-.14-3.5,1.09-4.07,2.8-.35,1.04-.19,2.11-.21,3.16-.03,1.62.02,3.24-.02,4.85-.02.91.19,1.48,1.27,1.37.55-.06,1.21-.09,1.14.78-.07.9-.77.62-1.27.59-1.57-.11-3.14-.14-4.71.02-.45.05-1.08.25-1.15-.56-.06-.71.39-.9.96-.83,1.04.13,1.17-.47,1.17-1.27,0-2.48-.02-4.96,0-7.43,0-.95-.31-1.64-1.21-2.08-1.23-.59-.93-1.1.14-1.53.37-.15.72-.36,1.08-.55q2.33-1.24,2.62,1.41Z"/>
        <path class="cls-3" d="M153.17,26.11c-.17-.03-.72-.1-1.26-.23-1.7-.41-3.23-2.97-2.78-4.61.08-.3.3-.4.54-.45.38-.09.52.21.67.48.5.87.92,1.81,1.52,2.6.88,1.17,2.5,1.35,3.85.58,1.16-.66,1.36-1.67,1.06-2.86-.22-.86-.88-1.35-1.64-1.67-.83-.35-1.71-.61-2.56-.93-2.61-.99-3.74-2.88-3.14-5.26.49-1.98,2.92-3.52,5.23-3.31.6.06,1.22.14,1.8.3,1.45.4,2.44,1.99,2.22,3.46-.04.29-.18.46-.42.57-.37.17-.56-.1-.75-.34-.53-.67-.99-1.42-1.6-2.02-1-1-2.69-1.03-3.75-.11-.92.8-1.09,1.77-.55,2.87.32.64.91.94,1.52,1.19.65.27,1.35.43,2.02.65,3.07,1,4.17,2.57,3.75,5.31-.34,2.21-2.59,3.81-5.72,3.8Z"/>
        <path class="cls-3" d="M108.27,23.67c-.41-.5-.69-.08-1.03.1-1.04.56-1.64.23-1.79-.92-.07-.55-.14-1.1-.14-1.65-.02-2.53.03-5.06-.03-7.59-.05-1.91-.8-2.76-2.7-3.04-2.64-.4-4.9.5-6.76,2.34-.41.41-.72,1-.88,1.56-.18.64-.39,1.5.65,1.68.87.15,1.67-.06,1.91-1.06.12-.48.06-1.01.05-1.51,0-.36-.03-.7.29-.96.99-.82,2.13-.9,3.3-.62,1.13.27,1.53,1.21,1.49,2.2-.05,1.1.71,2.47-.9,3.18-1.38.62-2.74,1.31-4.09,1.99-1.18.59-2.05,1.46-2.41,2.77-.73,2.65.93,4.43,3.62,3.88,1.53-.31,2.82-1.08,3.99-2.08,1.4,2.55,3.91,2.92,5.21.8.19-.31.58-.62.21-1.07ZM101.32,23.8c-.92.54-1.91.95-2.77.1-.92-.91-.71-2.05-.09-3.05.94-1.49,2.55-2.01,4.23-2.77,0,1.25-.06,2.26.01,3.26.08,1.16-.43,1.9-1.39,2.46Z"/>
        <path class="cls-3" d="M147.38,21.54c-.56-.31-.65.27-.88.55-.62.77-1.38,1.33-2.33,1.63-3.32,1.06-6.42-1.41-6.61-5.28q-.11-2.18,2.02-2.19c.92,0,1.83,0,2.75,0,1.27,0,2.55-.06,3.81.02,1.19.07,1.35-.47,1.17-1.48-.71-4.05-5.83-5.79-9.41-3.18-3.55,2.59-4.21,8.83-1.3,12.25,2.93,3.45,8.84,2.82,10.83-1.16.19-.39.55-.84-.05-1.17ZM139.48,12.32c1.81-1.45,3.96-.71,4.59,1.51.3,1.06-.08,1.38-1.08,1.36-1.67-.03-3.34,0-5.13,0,.28-1.26.77-2.18,1.62-2.87Z"/>
      </g>
    </g>
  </g>
</svg>